# xmcd
#
# Track frame offsets: 
#        150
#        16337
#        33042
#        43900
#        61592
#        78280
#        89952
#        103677
#        118182
#        138252
#        152717
#        167777
#        181430
#        195130
#        206402
#        221732
#
# Disc length: 3151 seconds
#
# Revision: 1
# Processed by: cddbd v1.5.1PL0 Copyright (c) Steve Scherf et al.
# Submitted via: ExactAudioCopy v0.95a5
#
DISCID=d50c4d10
DTITLE=Various Artist - Jazz Ladies
DYEAR=1900
DGENRE=Jazz
TTITLE0=Nina Simkone/My Baby Just Cares For Me
TTITLE1=Doris Day/Sentimental Journey
TTITLE2=Anita O'Day/Tea For Two
TTITLE3=Helen Humes/If I could Be With You
TTITLE4=Mahalia Jackson/Crying In The Chapel
TTITLE5=Aretha Franklin/If I Had a Hammer
TTITLE6=Ethel Waters/(What Did I Do To Be So)Black And Blue
TTITLE7=The Boswell Sisters/Old Yazoo
TTITLE8=Ester Philips/Waht a Diff'rence a Day Makes
TTITLE9=Sarah Vaughan/Summertime
TTITLE10=Billie Holiday/You've Changed
TTITLE11=Ella Fitzgerald/Smooth Sailing
TTITLE12=Dolores Hawkins/Oooh-wee!
TTITLE13=Betty Carter/Frenesi
TTITLE14=Billie Holiday/I'm a Fool To Want You
TTITLE15=Mildred Bailey/Lover Come Back To Me
EXTD=
EXTT0=
EXTT1=
EXTT2=
EXTT3=
EXTT4=
EXTT5=
EXTT6=
EXTT7=
EXTT8=
EXTT9=
EXTT10=
EXTT11=
EXTT12=
EXTT13=
EXTT14=
EXTT15=
PLAYORDER=
